<?xml version="1.0" encoding="UTF-8" standalone="no"?>
<!-- Created with Inkscape (http://www.inkscape.org/) -->

<svg
   xmlns:dc="http://purl.org/dc/elements/1.1/"
   xmlns:cc="http://creativecommons.org/ns#"
   xmlns:rdf="http://www.w3.org/1999/02/22-rdf-syntax-ns#"
   xmlns:svg="http://www.w3.org/2000/svg"
   xmlns="http://www.w3.org/2000/svg"
   xmlns:sodipodi="http://sodipodi.sourceforge.net/DTD/sodipodi-0.dtd"
   xmlns:inkscape="http://www.inkscape.org/namespaces/inkscape"
   width="256"
   height="256"
   viewBox="0 0 67.733332 67.733335"
   version="1.1"
   id="svg8"
   inkscape:version="0.92.3 (2405546, 2018-03-11)"
   sodipodi:docname="face.svg">
  <defs
     id="defs2" />
  <sodipodi:namedview
     id="base"
     pagecolor="#ffffff"
     bordercolor="#666666"
     borderopacity="1.0"
     inkscape:pageopacity="0.0"
     inkscape:pageshadow="2"
     inkscape:zoom="1.979899"
     inkscape:cx="-38.969836"
     inkscape:cy="8.4820958"
     inkscape:document-units="px"
     inkscape:current-layer="layer2"
     showgrid="false"
     units="px"
     inkscape:window-width="2559"
     inkscape:window-height="1521"
     inkscape:window-x="456"
     inkscape:window-y="177"
     inkscape:window-maximized="0" />
  <metadata
     id="metadata5">
    <rdf:RDF>
      <cc:Work
         rdf:about="">
        <dc:format>image/svg+xml</dc:format>
        <dc:type
           rdf:resource="http://purl.org/dc/dcmitype/StillImage" />
        <dc:title />
      </cc:Work>
    </rdf:RDF>
  </metadata>
  <g
     inkscape:label="Head"
     inkscape:groupmode="layer"
     id="layer1"
     transform="translate(0,-229.26665)"
     sodipodi:insensitive="true">
    <path
       style="fill:#e9c6af;fill-opacity:1;stroke:none;stroke-width:2.24042106;stroke-linecap:butt;stroke-linejoin:miter;stroke-miterlimit:4;stroke-dasharray:none;stroke-opacity:1"
       d="m 33.668709,232.67647 c 12.447318,-0.0858 19.705779,5.34196 23.763616,11.88106 3.081139,4.96518 2.020322,19.3183 0.484604,24.32961 -1.535723,5.0113 -9.860794,21.91951 -16.326962,24.00152 -5.549537,1.78688 -12.205108,1.62076 -16.731444,-0.80406 C 20.332189,289.65978 11.195951,274.09826 9.5821454,268.48301 7.968339,262.86776 7.399806,247.62954 10.390419,243.83064 c 3.866578,-4.9116 11.717705,-11.07447 23.27829,-11.15417 z"
       id="path4522"
       inkscape:connector-curvature="0"
       sodipodi:nodetypes="ssssszss" />
    <path
       style="opacity:0.7;fill:#784421;fill-opacity:1;stroke:none;stroke-width:2.24042106;stroke-linecap:butt;stroke-linejoin:miter;stroke-miterlimit:4;stroke-dasharray:none;stroke-opacity:1"
       d="m 33.668708,232.67647 c 6.291489,0.0581 20.74853,3.95733 21.204223,9.44782 0.0633,0.7627 4.382749,7.45652 3.846249,8.27461 -0.507452,0.7738 -5.836126,-4.33073 -6.983639,-3.51789 -2.037799,1.44347 -5.164134,2.94045 -9.660611,4.46237 -5.549537,1.78688 -12.205108,1.62076 -16.731444,-0.80406 -4.730913,-1.73835 -7.607182,-3.49593 -9.107966,-5.1955 -0.43242,-0.48969 -7.0713507,5.26854 -7.6065332,4.42801 -0.4762202,-0.74791 2.6281742,-7.52991 4.1187172,-8.83765 2.98294,-2.61711 14.605178,-8.29819 20.921004,-8.25771 z"
       id="path4522-9"
       inkscape:connector-curvature="0"
       sodipodi:nodetypes="csssccsssc" />
    <path
       style="fill:#e3dedb;stroke:#deaa87;stroke-width:1.60030079;stroke-linecap:butt;stroke-linejoin:miter;stroke-miterlimit:4;stroke-dasharray:none;stroke-opacity:1"
       d="m 13.8342,260.49664 c 0.6648,-1.13548 15.117374,1.61368 16.499785,3.23429 0.489482,0.57382 0.675216,2.76038 0.169774,3.05064 -2.040894,1.172 -10.114392,1.94758 -12.717689,0.0239 -2.173691,-1.60621 -4.277488,-5.75271 -3.951874,-6.30886 z"
       id="path4556"
       inkscape:connector-curvature="0"
       sodipodi:nodetypes="cssssc" />
    <path
       style="fill:#e3dedb;stroke:#deaa87;stroke-width:1.60030079;stroke-linecap:butt;stroke-linejoin:miter;stroke-miterlimit:4;stroke-dasharray:none;stroke-opacity:1"
       d="m 53.480275,260.49664 c -0.664799,-1.13548 -15.117373,1.61368 -16.499784,3.23429 -0.489482,0.57382 -0.675216,2.76038 -0.169774,3.05064 2.040894,1.172 10.114391,1.94758 12.717688,0.0239 2.173691,-1.60621 4.277489,-5.75271 3.951874,-6.30886 z"
       id="path4556-2"
       inkscape:connector-curvature="0"
       sodipodi:nodetypes="cssssc" />
    <path
       style="fill:#d38d5f;stroke:none;stroke-width:0.32006013px;stroke-linecap:butt;stroke-linejoin:miter;stroke-opacity:1"
       d="m 34.38603,269.89737 c 0,0 0.09442,6.29678 0.599617,8.35779 0.565806,0.32323 0.756024,0.42617 1.356138,0.4869 -0.479059,0.29791 -0.782142,0.25525 -1.783943,0.005 -1.212463,0.39468 -1.323972,0.19387 -1.745356,0.0488 0.910885,-0.0786 1.371513,-0.29115 1.613996,-0.53363 0.12124,-0.293 -0.383967,-7.68817 -0.04045,-8.36511 z"
       id="path819"
       inkscape:connector-curvature="0"
       sodipodi:nodetypes="cccccccc" />
    <path
       style="fill:#d38d5f;fill-opacity:1;stroke:none;stroke-width:0.32006013px;stroke-linecap:butt;stroke-linejoin:miter;stroke-opacity:1"
       d="m 36.929516,277.71592 c 1.500485,0.40214 1.259018,1.40539 0.457231,1.55744 0,0 0.307204,-0.16434 0.221476,-0.57157 -0.06872,-0.3264 -0.335778,-0.6644 -0.6787,-0.98587 z"
       id="path825"
       inkscape:connector-curvature="0"
       sodipodi:nodetypes="ccscc" />
    <path
       style="fill:#d38d5f;fill-opacity:1;stroke:none;stroke-width:0.32006013px;stroke-linecap:butt;stroke-linejoin:miter;stroke-opacity:1"
       d="m 32.163408,277.71592 c -1.500485,0.40214 -1.259016,1.40539 -0.457229,1.55744 0,0 -0.307205,-0.16434 -0.221478,-0.57157 0.06872,-0.3264 0.335778,-0.6644 0.678702,-0.98587 z"
       id="path825-7"
       inkscape:connector-curvature="0"
       sodipodi:nodetypes="ccscc" />
  </g>
  <g
     inkscape:groupmode="layer"
     id="layer3"
     inkscape:label="Beard (scruff)"
     style="display:inline">
    <path
       style="opacity:0.7;fill:#784421;fill-opacity:1;stroke:none;stroke-width:2.24042106;stroke-linecap:butt;stroke-linejoin:miter;stroke-miterlimit:4;stroke-dasharray:none;stroke-opacity:1"
       d="m 34.754625,57.746048 c 1.579412,-0.01089 4.465203,-0.590788 6.442013,-1.18879 0.871949,-0.263782 3.471519,0.756005 4.344487,0.372213 0.99219,-0.43621 0.56927,-3.580984 1.498316,-4.177123 2.175233,-1.395797 2.797023,-2.733217 3.997979,-5.053412 4.653319,-8.990035 6.410055,-16.488697 7.898051,-16.847173 0.78588,-0.189326 -1.032534,8.081896 -2.360453,10.844095 C 52.597134,49.798195 49.989233,60.420047 41.589964,63.622012 36.040429,65.408885 29.384858,65.242773 24.858522,62.817953 16.9177,55.382653 12.830837,46.205808 10.504726,41.940575 9.6851217,39.669868 7.8880436,30.637107 8.3211837,30.306309 9.1980431,29.63662 11.880102,38.281668 17.63049,48.551188 c 0.805058,1.437736 2.48662,3.318696 3.823708,4.332369 0.863513,0.654641 0.05138,3.312766 1.03252,3.808286 0.889034,0.449008 3.029944,-0.850067 3.951525,-0.520817 3.17426,1.134059 6.361011,1.588498 8.316382,1.575022 z"
       id="path4522-7"
       inkscape:connector-curvature="0"
       sodipodi:nodetypes="ssssssccccssssss" />
  </g>
  <g
     inkscape:groupmode="layer"
     id="layer2"
     inkscape:label="Smirk (right)"
     style="display:none">
    <path
       style="fill:#28170b;fill-opacity:1;stroke:#de8787;stroke-width:0.79374999;stroke-linecap:butt;stroke-linejoin:round;stroke-miterlimit:4;stroke-dasharray:none;stroke-opacity:1;paint-order:normal"
       d="m 30.931208,56.051221 c 0.05011,0.476074 0.05011,0.476074 0.121642,1.012984 6.395171,-0.257527 9.190052,-1.177285 12.164799,-3.994448 -0.309309,-0.383632 -0.462039,-0.584146 -0.551522,-0.801241 -3.975037,2.555371 -5.678871,2.633697 -11.734919,3.782705 z"
       id="path845-2"
       inkscape:connector-curvature="0"
       sodipodi:nodetypes="ccccc" />
  </g>
  <g
     inkscape:groupmode="layer"
     id="layer4"
     inkscape:label="Head (outline)"
     style="display:inline"
     sodipodi:insensitive="true">
    <path
       style="fill:none;fill-opacity:1;stroke:#28170b;stroke-width:2.56048107;stroke-linecap:butt;stroke-linejoin:miter;stroke-miterlimit:4;stroke-dasharray:none;stroke-opacity:1"
       d="m 33.668707,3.4098232 c 12.44732,-0.085766 19.705781,5.3419538 23.763616,11.8810648 3.081136,4.965175 2.020319,19.318298 0.4846,24.329598 C 56.381205,44.631791 48.056135,61.540001 41.589966,63.622012 36.040428,65.408886 29.384857,65.242771 24.858521,62.81795 20.332187,60.393133 11.195951,44.831617 9.5821454,39.216359 7.968339,33.601103 7.399806,18.362896 10.390419,14.563993 14.256997,9.6523931 22.108122,3.4895167 33.668707,3.4098232 Z"
       id="path4522-5"
       inkscape:connector-curvature="0"
       sodipodi:nodetypes="ssssszss" />
  </g>
</svg>
